<svg xmlns="http://www.w3.org/2000/svg" viewBox="0 0 48 48">
  <defs>
    <linearGradient id="g" x1="4" y1="4" x2="44" y2="44" gradientUnits="userSpaceOnUse">
      <stop offset="0" stop-color="#4aadc6"/>
      <stop offset="0.55" stop-color="#2c91ad"/>
      <stop offset="1" stop-color="#2fa37a"/>
    </linearGradient>
  </defs>
  <rect x="2" y="2" width="44" height="44" rx="14" fill="url(#g)"/>
  <path d="M24 35.5c-.7 0-1.3-.25-1.85-.66C16.6 30.7 11.5 26.4 11.5 20.8c0-3.7 2.85-6.3 6.1-6.3 2.45 0 4.7 1.45 6.4 3.7 1.7-2.25 3.95-3.7 6.4-3.7 3.25 0 6.1 2.6 6.1 6.3 0 5.6-5.1 9.9-10.65 14.04-.55.41-1.15.66-1.85.66Z" fill="#fff"/>
  <rect x="21.5" y="16.4" width="5" height="14" rx="2.5" fill="url(#g)"/>
  <rect x="17" y="20.9" width="14" height="5" rx="2.5" fill="url(#g)"/>
</svg>
